<?xml version="1.0" encoding="UTF-8"?> <svg xmlns="http://www.w3.org/2000/svg" width="1200pt" height="1200pt" viewBox="0 0 1200 1200"> <g> <path d="m858 837.6v-588c0-22.801-19.199-42-42-42h-432c-22.801 0-42 19.199-42 42v588c0 22.801 19.199 42 42 42h139.2l-3.6016 103.2c0 3.6016 2.3984 8.3984 6 9.6016 1.1992 0 2.3984 1.1992 3.6016 1.1992 2.3984 0 4.8008-1.1992 6-2.3984l64.801-55.203 62.398 54c2.3984 2.3984 7.1992 3.6016 10.801 2.3984 3.6016-1.1992 6-4.8008 6-9.6016l-3.6016-103.2 140.4 0.003906c22.801-1.2031 42-19.203 42-42zm-258-32.402c-57.602 0-104.4-46.801-104.4-104.4 0-57.602 46.801-104.4 104.4-104.4 57.602 0 104.4 46.801 104.4 104.4 0 57.598-46.797 104.4-104.4 104.4zm7.1992 121.2c-3.6016-3.6016-9.6016-3.6016-13.199 0l-61.199 52.801 6-178.8c18 10.801 39.602 18 62.398 18 22.801 0 44.398-7.1992 62.398-18l6 178.8zm66-135.6c26.398-21.602 43.199-54 43.199-90 0-63.602-51.602-116.4-116.4-116.4-64.801 0-116.4 51.602-116.4 116.4 0 36 16.801 68.398 43.199 90l-2.3984 75.602-140.4-0.003906c-16.801 0-30-13.199-30-30v-588c0-16.801 13.199-30 30-30h432c16.801 0 30 13.199 30 30v588c0 16.801-13.199 30-30 30h-140.4z"></path> <path d="m522 381.6h156c3.6016 0 6-2.3984 6-6 0-3.6016-2.3984-6-6-6h-156c-3.6016 0-6 2.3984-6 6 0 3.5977 2.3984 6 6 6z"></path> <path d="m750 477.6h-300c-3.6016 0-6 2.3984-6 6 0 3.6016 2.3984 6 6 6h300c3.6016 0 6-2.3984 6-6 0-3.6016-2.3984-6-6-6z"></path> </g> </svg> 