<?xml version="1.0" encoding="UTF-8"?> <svg xmlns="http://www.w3.org/2000/svg" width="1200pt" height="1200pt" viewBox="0 0 1200 1200"> <path d="m733.75 153.53c-18.941-17.797-42.918-21.535-59.723-21.535-15.512 0-26.938 3.1133-27.422 3.2461-1.5195 0.42187-2.7188 1.3516-3.6641 2.4844-39.492 10.648-74.711 3.1016-85.617 0.17969-0.007813-0.007812-0.007813-0.019531-0.015625-0.027344-1.2734-1.6328-3.1641-2.6719-5.2148-2.8711-0.027344-0.007812-50.211-5.4219-85.559 18.266-1.4805 1.2539-148.39 127.96-186.07 351.26-0.33594 2.0195 0.16016 4.0938 1.3906 5.7344s3.0742 2.7109 5.1133 2.957c30.176 3.6484 110.71 19.504 126.65 49.102l-7.7773 230.6c-0.058593 2.0195 0.6875 3.9844 2.0938 5.4492 0.6875 0.71094 9.8164 9.875 28.492 18.457v217.41l1.1133 1.8008c0.95312 1.5508 20.449 31.73 92.594 31.73 14.441 0 31.078-1.2734 50.012-4.1641 0.085938 0.003906 0.16016 0.046874 0.24609 0.046874h0.25c0.44531-0.015624 0.82422-0.20703 1.2461-0.29297 0.35156-0.054688 0.67187-0.089844 1.0234-0.14453 0.44141-0.14453 44.648-15.602 87.246-2.5352 3.1914 0.32422 78.441 8.6719 103.4-24.008l1.5391-2.0195v-223.81c10.902-6.4062 16.422-11.926 16.949-12.473 1.4062-1.4648 2.1523-3.4258 2.0938-5.4492l-7.7773-230.6c15.938-29.598 96.473-45.453 126.65-49.102 2.0352-0.25 3.8828-1.3164 5.1133-2.957 1.2305-1.6406 1.7305-3.7148 1.3906-5.7344-37.68-223.3-184.59-350.01-185.78-351.01zm-136.26 149.57c-4.1641 4.9062-8.668 9.5312-13.359 13.961-3.9258-2.3672-8.0273-5.957-12.082-10.637-2.7109-3.1367-7.4844-3.4648-10.574-0.75391-3.1367 2.7188-3.4727 7.457-0.76172 10.582 3.793 4.3672 7.6484 7.9648 11.543 10.855-8.0039 6.0781-16.668 11.18-26.02 15.035l2.3867-105.73c9.5117 23.777 25.055 51.691 48.867 66.691zm-51.617 55.211c16.473-5.7344 31.012-14.82 43.766-25.906 0.14844-0.097656 0.24219-0.23438 0.38672-0.33984 29.668-25.957 49.602-61.949 61.438-89.055l0.83984 37.047c-0.54297 0.66797-1.0312 1.3945-1.3242 2.2539-0.22656 0.63281-22.363 61.598-105.69 102.08zm-5.582 247.14h45.293c4.1445 0 7.5-3.3555 7.5-7.5s-3.3555-7.5-7.5-7.5h-44.953l0.54688-24.199h117.61l1.1562 51.059-119.92-0.003906zm1.2266-54.199 3.3867-150.07c61.148-27.777 92.945-65.68 108.1-90.059l5.4453 240.13zm101.21-398.06 7.8086 49.031 0.007813 0.32031c-1.8281 6.1719-15.516 50.145-43.652 88.625-38.129-22.602-53.82-88.051-55.957-97.812l6.3203-39.977c8.8203 2.1289 24.035 4.9648 42.98 4.9648 12.789-0.007812 27.285-1.457 42.492-5.1523zm-214.04 407.75v-0.003906l15.617-194.01c0.33594-4.1289-2.7383-7.7422-6.8711-8.0781-4.0586-0.22656-7.75 2.7461-8.0703 6.8789l-14.133 175.59c-30.184-26.789-94.871-38.465-118.62-41.93 38.73-212.92 178.21-333.46 178.95-334.16 21.824-14.574 52.75-15.973 67.133-15.668l-6.6289 42.211c-0.046876 0.19141-0.058594 0.37891-0.089844 0.57422l-1.4961 9.5391-9.5977 422.89c0 0.007813-0.003906 0.015626-0.003906 0.023438s0.003906 0.011719 0.003906 0.019531l-4.3555 192.02c-2.7383 0.10156-5.418 0.14453-8.0586 0.14453h-0.015625c-54.551 0-83.629-20.535-91.48-27.055zm331.42 468.46c-18.02 19.613-69.348 18.559-86.863 16.656-34.598-10.75-69.98-4-85.66 0.14453l-5.9805-183.3c-0.13281-4.0586-3.4727-7.25-7.5-7.25h-0.25c-4.1289 0.13281-7.3828 3.6055-7.25 7.75l6.0781 186.23c-86.359 12.172-115.56-13.727-121.25-20.082v-206.84c15.719 5.2461 35.859 9.2773 61.012 9.2773h0.015626c5.0977 0 10.371-0.16016 15.879-0.51172 3.8828-0.25 6.9297-3.4258 7.0156-7.3086l4.332-191.86h120.61l4.3516 191.86c0.089844 3.8828 3.1367 7.0586 7.0156 7.3086 5.5078 0.35156 10.797 0.51172 15.895 0.51172 31.777 0 55.664-6.3945 72.555-13.605zm24.473-487.92-15.273-165.78c-0.39453-4.1289-4.2031-7.2305-8.1602-6.7812-4.1289 0.37891-7.1641 4.0352-6.7812 8.1602l16.953 184.04 7.7148 228.81c-8.2461 6.8711-39.785 29.254-99.551 26.91l-4.3711-191.93c0-0.039063 0.023437-0.070313 0.023437-0.10938 0-0.046874-0.027343-0.089843-0.027343-0.13672l-1.5-65.828c0-0.03125 0.019531-0.058594 0.019531-0.09375 0-0.042969-0.023438-0.074219-0.023438-0.11719l-8.1484-357.75-8.3047-52.516c4.1914-0.67969 10.105-1.3789 16.891-1.3789 14.09 0 34.086 3.0312 49.73 17.719 1.4219 1.207 140.9 121.76 179.63 334.68-23.809 3.4727-88.727 15.191-118.82 42.102z"></path> </svg> 