<?xml version="1.0" encoding="UTF-8"?> <svg xmlns="http://www.w3.org/2000/svg" width="1200pt" height="1200pt" viewBox="0 0 1200 1200"> <g fill="#f8f4e6" fill-rule="evenodd"> <path d="m847.2 988.33c-65.316 43.598-133.25 67.812-202.25 90.012-25.738 8.2812-49.43 8.3047-75.156-0.023438-63.336-20.52-125.89-42.469-186.05-79.285 14.27 35.496 33.035 63.961 57.035 89.258 3.3242 3.5156 4.7773 8.8086 7.1055 13.285-5.1016 2.1953-10.715 7.0312-15.238 6.1797-80.617-15.371-155.33-42.023-205.16-113.14-18.383-26.23-26.41-56.113-28.547-87.805-0.19141-2.7969-1.7266-5.5078-2.1602-6.8398-4.2109 6.0469-8.5664 12.312-12.938 18.59-3.5156-7.0781-8.7461-13.812-10.285-21.301-14.977-72.648-16.129-145.16 4.0078-217.22 1.2852-4.6094 2.5078-9.2383 3.6719-13.883 0.10938-0.44531-0.44531-1.043-1.7266-3.8281-15.48 10.211-30.648 20.293-45.898 30.254-13.008 8.4961-19.621 6.0352-22.633-9.0234-10.234-51.203-12.84-102.2 7.0078-155.45-5.4961 3.0586-8.7734 4.6797-11.844 6.6484-3.0117 1.9336-5.5312 4.9453-8.7617 6.1914-4.5977 1.7656-9.6367 2.3516-14.484 3.457-0.98438-6-4.2227-12.707-2.5938-17.867 15.816-49.906 45.191-89.473 91.199-115.73 4.1172-2.3398 8.4609-4.2852 13.453-6.793-18.121-41.914-16.402-80.449 21.492-110.14 30.047-23.555 68.242-20.172 107.3 7.3203 19.246-31.234 40.668-60.613 75.254-76.715 36.719-17.102 71.281-9.1211 106.75 11.566-3.4805-13.824-6.9102-25.055-9.0703-36.527-8.9648-47.566 22.309-95.699 69.527-106.96 4.7891-1.1406 10.199 0.28906 15.312 0.52734-1.2969 4.7266-2.5078 9.4805-3.9258 14.172-7.0078 23.352-17.328 46.273-20.363 70.129-4.8242 37.895 14.328 64.586 51.828 79.957 21.973-60.637 62.426-96.035 130.09-88.715 22.934 2.4844 49.969 0.74219 63.445 29.977-46.453 12.758-94.836 17.074-133.46 57.59 90.516-27.91 172.82-33.875 240.9 39.695 34.5-21.91 69.66-25.777 102.72-0.68359 32.113 24.383 36.422 58.656 25.633 96.238 55.969 35.965 87.707 87.457 99.121 152.02 0.9375 5.3047 2.5547 10.812 1.9062 15.984-0.92578 7.1992-3.6953 14.148-5.6758 21.215-6.0352-2.7344-12.07-5.4727-20.125-9.1211-0.91016 9.1914-0.80469 19.656-3.168 29.52-4.0078 16.812-8.7969 33.527-14.723 49.754-4.1289 11.316-10.871 21.086-22.32 6.4805-5.5547 13.895-10.789 26.977-16.586 41.484 29.328 68.293 31.164 141 16.754 214.91-0.85156 4.3789-5.3633 8.0391-8.1719 12.035-2.6875-4.1406-6.7812-7.957-7.7891-12.469-2.4727-11.074-3.5039-22.477-7.9688-34.859-4.5586 11.531-12.012 22.766-13.223 34.645-7.5234 74.328-50.074 123.7-113.84 154.77-35.699 17.387-75.191 27.133-113.36 39.098-6 1.8828-14.062-2.7734-21.168-4.4023 3.2656-5.8086 5.5781-12.492 9.9727-17.27 24.844-27.129 42.941-58.164 59.176-96.91zm-233.51-455.92c-29.305 55.332-47.941 112.37-34.117 175.8 1.332 6.0977-1.3672 13.078-2.1953 19.656-6.3828-2.9883-14.34-4.4531-18.91-9.1914-42.504-44.09-70.309-95.797-78.938-157.52-16.105 43.871-33.156 87.012-36.457 135.32 5.5312-0.82812 9.1211-2.2578 12.371-1.7031 21.551 3.6836 43.211 7.0312 64.379 12.348 4.4883 1.1289 7.043 9.8867 10.5 15.145-5.7969 0.33594-11.676 1.3555-17.375 0.78125-3.9961-0.39453-7.7031-3.1328-11.641-4.5586-38.473-14.074-71.594-5.3516-95.531 27.562-10.066 13.836-16.477 30.359-24.301 45.781-1.8828 3.6953-1.8828 8.6172-4.3672 11.676-2.9023 3.6016-7.5586 5.7734-11.473 8.5664-1.7148-5.0039-3.8047-9.9102-4.9336-15.047-0.44531-2.0156 0.94922-4.6914 2.0742-6.7578 6.0352-11.125 4.8945-19.535-6.6953-27.035-3.6602-2.375-3.707-10.465-5.207-15.984-0.68359-2.5312 0.085938-6.2148-1.4414-7.6562-9.1211-8.6172-18.707-16.727-31.008-27.527 8.2812 83.137 20.195 161.14 45.48 236.53 1.8711 5.5938 7.4531 10.609 12.457 14.363 49.5 37.234 106.91 57.984 163.84 80.531 46.141 18.277 89.16 18 135.14-0.25391 55.777-22.129 111.73-42.91 161.05-78.277 20.617-14.785 33.84-32.617 37.848-58.129 7.5234-47.891 13.789-96.203 25.309-143.17 10.633-43.332 1.4648-81.121-18.156-118.8-15.047-28.906-28.871-58.453-43.246-87.707-1.4023 0.60156-2.8086 1.1992-4.2227 1.8008 0.75781 4.5703 1.7656 9.1211 2.2305 13.727 4.2461 41.594 8.7734 83.16 12.238 124.81 0.61328 7.2734-0.9375 17.293-5.5781 21.973-14.52 14.617-7.332 24.852 3.6133 35.93 2.0508-1.2227 3.4805-2.5664 5.125-2.9766 6.6016-1.6094 13.273-2.9414 19.922-4.3672-2.8906 6.1328-4.3203 14.004-9.0234 18.012-7.3086 6.2266-9.0469 11.617-4.7773 19.934 2.1719 4.2109 4.2969 9.0352 4.2734 13.57-0.011719 4.0547-3 8.1016-4.6914 12.156-4.0938-2.375-9.8516-3.7695-11.93-7.3203-3.8516-6.6016-5.2695-14.578-8.1719-21.793-27.613-68.746-78.266-86.113-130.61-58.5-3.6367 1.9219-10.129-1.5859-15.277-2.5547 2.7734-4.5703 4.4531-11.281 8.4961-13.367 36.047-18.539 72.035-20.941 107.14 2.9023 4.0078 2.7227 8.125 5.2812 12.18 7.9219 1.3203-1.1172 2.6523-2.2422 3.9727-3.3594-31.5-67.355-60.203-136.25-110.44-194.2-0.91016 32.867-0.48047 65.148 3.7305 96.938 2.0391 15.422 11.293 29.855 17.004 44.844 1.9219 5.0156 2.9883 10.355 4.4531 15.551-6.0117 0.55078-12.707 3.1094-17.93 1.3203-27.266-9.2891-49.754-25.871-68.352-47.832-24.285-28.691-33.547-62.93-37.832-99.867zm-263.2 181.81c-6.4062-48.648-3.6367-96.516 9.1562-143.09 9.7812-35.641 23.605-70.176 36.254-104.99 1.1875-3.2656 6.7422-4.9688 10.262-7.3789 2.0742 3.9961 5.9297 8.0156 5.8555 11.977-0.14453 7.043-2.7852 14.004-4.1641 21.047-11.809 60.383-6.3594 119.02 17.762 178.03 2.0898-4.5 3.5508-6.9727 4.4023-9.625 16.141-50.102 32.051-100.29 48.434-150.31 3.1445-9.6133 7.7148-18.816 12.395-27.816 1.2969-2.4961 5.7617-5.3398 8.0039-4.8008 2.5664 0.61328 5.7734 4.6797 6.0352 7.4883 0.49219 5.1836-1.5 10.535-1.5352 15.828-0.21484 28.535-3.6719 57.637 0.68359 85.5 5.9141 37.859 25.297 70.801 50.195 100.12 3.5391-27.383 2.9883-54.602 11.137-78.887 13.223-39.434 31.812-77.113 49.043-115.12 2.4375-5.375 9.9727-8.4492 15.156-12.574 2.125 6.8633 5.1602 13.621 6.1094 20.652 0.76953 5.7734-1.0781 11.879-1.5 17.855-4.1289 57.602 23.543 110.44 71.172 134.11-0.80469-4.2227-1.1641-7.6445-2.125-10.883-12.973-44.004-10.883-89.004-8.3516-133.91 0.92578-16.355 10.453-20.113 22.523-9.4453 8.4727 7.4883 17.27 15.59 22.812 25.211 27.203 47.137 53.387 94.848 79.848 142.39 2.9141 5.2305 5.3398 10.738 8.0039 16.129 3-17.004 3.2773-32.723 0.52734-47.879-6.5039-35.914-14.711-71.508-21.469-107.38-1.0547-5.5938 1.8945-11.953 2.9883-17.953 5.6875 1.9922 13.141 2.375 16.727 6.2891 9.2266 10.105 18.637 20.832 24.59 32.988 25.523 52.094 49.812 104.8 74.594 157.26 1.7891 3.793 3.9492 7.4141 5.9297 11.113 2.125-0.35938 4.2344-0.73047 6.3594-1.1055 0-38.746-0.33594-77.496 0.33594-116.24 0.10938-6.1797 4.7266-12.277 7.2461-18.422 4.668 4.6094 11.438 8.3984 13.598 13.98 6.457 16.621 11.113 33.938 16.477 50.977 3.3945-88.367-19.633-168.86-71.629-240.01-38.797-53.102-89.555-84.492-157.99-78.254-45.383 4.1289-85.43 23.062-122.07 48.938-12.383 8.7461-20.172 10.754-31.934-1.3438-20.879-21.492-47.039-35.102-76.789-40.309-50.844-8.9141-99.238-0.070312-144.5 23.809-83.785 44.219-119.36 117.73-122.91 209.05-0.99609 25.633 2.1602 51.445 3.4062 77.16 1.6094 0 3.2266 0.011719 4.8359 0.011719 4.4531-9.0469 8.2305-18.539 13.633-27 3.1328-4.8945 8.8789-8.125 13.465-12.109 3.2266 5.3398 8.4727 10.391 9.3359 16.094 5.9219 39.047 29.781 66.73 57.691 92.816zm534.16-400.05c-18.457-24.422-41.965-40.199-70.344-48.301-52.68-15.047-103.19-4.4648-152.75 14.52-3.0977 1.1875-5.6875 3.875-8.2812 6.1445-5.0625 4.4141-9.9727 9.0234-16.789 15.254-11.352-49.43 5.2422-67.094 99.672-111.79-20.473-6.4922-39.012-3.8164-57.023 2.9531-41.543 15.602-56.449 51.695-66.215 90.695-37.188-12.086-57.359-25.176-70.766-45.996-22.98-35.688-15.254-73.297-4.8008-112.95-4.1289 2.4961-6.2773 3.4219-7.9688 4.8711-24.863 21.406-32.531 50.762-17.762 86.762 10.992 26.797 27.023 51.516 41.566 78.59-2.6289 2.0898-7.0781 5.6289-8.7969 6.9961-21.672-16.645-40.441-33.312-61.32-46.68-57.695-36.961-132.83-4.6445-148.89 62.746 10.957 7.1641 21.816 14.258 32.461 21.215 77.039-33.469 166.71-44.062 242.89 24.469 7.3789-4.7773 14.711-9.9492 22.43-14.438 58.922-34.246 121.02-55.332 188.32-30.266 23.605 8.8008 42.34 9.9766 64.371-4.7969zm-653.52 302.8c-5.1133-50.723 1.9336-102.52 16.176-153.65 1.1406-4.1055-0.48047-10.488-3.2031-13.906-21.648-27.289-54.227-31.727-81.66-11.508-6.2539 4.6094-12.492 9.4688-17.797 15.07-15.672 16.547-30.48 33.805-37.934 58.488 5.9883-2.1836 9.2539-4.2461 12.625-4.4531 8.3281-0.50391 16.727-0.17969 25.094-0.19141-1.9219 6.9258-2.8555 14.328-5.9297 20.711-22.621 47.004-19.906 95.398-11.34 144 34.969-18.348 68.148-35.77 103.97-54.562zm730.05 51.035c-2.1719-1.1406-2.6172-1.3789-3.0703-1.6211-2.7852 57.805-5.5781 115.61-8.3398 172.85 11.27-3.168 15.684 3.5898 13.488 16.5-1.2109 7.0664-3.0977 14.051-5.0742 20.965-10.598 37.094-21.324 74.16-32.004 111.23 1.7539 1.7539 3.5039 3.4922 5.2422 5.2305 19.066-21.434 38.398-42.637 57.156-64.332 21.516-24.898 35.398-53.531 41.016-86.184 1.0078-5.8438 4.6797-11.242 7.1172-16.836 5.7461 3.0117 11.508 6.0352 16.738 8.7734 4.3086-66.875-16.152-127.99-56.629-184.88-2.7461 18.516-4.5 35.23-8.0039 51.562-1.2617 5.8906-6.7188 10.895-10.262 16.297-3.7422-5.8086-8.9414-11.184-10.895-17.543-3.3242-10.727-4.582-22.094-6.4805-32.004zm-550.82 418.29c-15.215-27.719-31.465-53.027-43.57-80.195-35.746-80.16-51.887-165.57-61.547-252.13-8.0039-71.699-7.4766-74.473-30.469-113.82-3.5391 19.859-8.3516 36.059-8.9648 52.43-1.2969 34.727-2.3164 69.648-0.058594 104.27 5.293 81 17.664 160.09 77.027 222.72 2.2812 2.4102 3.8516 9.3594 2.5195 10.547-3.0117 2.6875-8.8203 5.1836-12.133 3.9961-8.3516-3-16.523-7.3086-23.773-12.48-25.621-18.289-50.832-37.176-78.91-57.816 39.48 74.965 107.64 101.73 179.88 122.48zm698-549.49c-12.672-53.773-39.672-98.074-85.262-126.65-17.902 10.141-34.141 17.723-48.457 27.984-10.98 7.8711-20.195 15.898-12.371 34.922 12.66 30.77 24.816 63.625 27.07 96.301 2.8438 41.102 29.52 64.57 51.863 95.293 1.5859-5.4609 2.9297-8.5938 3.3711-11.844 3.5039-25.5 6.3828-51.098 10.609-76.477 0.85156-5.1133 6.6133-9.4062 10.117-14.074 3.457 4.1875 8.5781 7.8711 10.02 12.672 2.8906 9.5898 3.7578 19.789 5.4727 29.734 2.2812-16.609 2.0156-33.254 2.4102-49.859 0.16797-6.8633-0.52734-16.992 3.3125-19.668 4.3477-3.0156 13.348 0.70313 21.844 1.6641zm-923.24 323.4c8.1016-4.0938 14.051-7.1055 20.016-10.129 2.4258 6.8984 6.4219 13.668 7.0078 20.711 4.6328 54.684 39.996 87.66 80.797 117.14-3.2773-10.969-8.3984-20.902-12.551-31.246-31.043-77.207-35.102-158.1-34.414-240.04 0.20312-24.422-6.9844-48.898-11.617-78.77-13.801 10.801-28.188 16.285-31.922 25.906-24.59 63.434-25.922 129.38-17.316 196.42zm736.87-111.17c-17.531 118.4-35.473 235.79-110.52 338.58 82.535-24.602 156.42-53.543 189.7-139.31-30.625 25.246-59.832 49.859-89.82 73.488-4.5859 3.6133-12.758 2.6758-19.273 3.8516 0.91016-6.3711 0.70703-13.164 2.9023-19.055 15.539-41.809 31.57-83.438 48.203-127.08-21.336 1.0938-23.844-2.6992-20.902-19.008 6.4453-35.773 12.191-71.688 18.266-107.81-8.3984-1.6562-13.402-2.6406-18.551-3.6602zm-659.22-315.55c13.895-16.57 25.68-32.531 39.469-46.5 13.559-13.738 29.172-25.465 44.531-38.629-20.473-16.57-42.348-20.578-65.965-10.848-24.637 10.152-37.367 29.605-38.258 55.895-0.55078 16.488 1.9805 32.617 20.223 40.082zm646.39-119.2c26.688 3.793 47.977 13.141 58.598 33.539 9.9609 19.129 13.621 41.531 20.258 63.109 17.902-9.9727 27.719-28.633 27.469-52.164-0.28906-27-13.188-47.004-38.508-57.336-23.441-9.5547-45.172-5.8086-67.816 12.852zm-614.34-0.96094c-17.449-17.281-42.77-21.781-65.258-11.617-24.227 10.969-38.531 33.695-37.598 59.773 0.85156 23.785 13.547 42.805 32.855 49.246-1.5938-56.277 15.543-80.121 70-97.402zm654.65 122.41c21.516-24.84 21.648-59.914-1.2734-84.168-20.664-21.852-55.297-25.367-74.438-9.9609 25.324 31.504 50.656 62.992 75.711 94.129zm-570.13 128.03c-12.637 46.535-18.348 98.746-8.2695 152.11 2.375 12.602 3.9609 25.355 5.9297 38.219 9.1797-9.8164 16.43-20.27 4.4531-34.414-2.6523-3.1211-5.1602-7.1172-5.7461-11.004-0.61328-4.0312 1.1758-8.4375 1.9219-12.684 4.5 1.3906 10.477 1.4648 13.164 4.4766 4.9219 5.5195 7.8945 12.781 12.07 19.992 7.1875-5.6875 12.73-10.078 14.305-11.328-13.434-51.594-26.129-100.36-37.828-145.37z"></path> <path d="m505.04 867.57c7.1055-1.8477 10.512-3.5625 13.789-3.3359 2.9414 0.21484 5.7227 2.5938 8.5781 4.0078-1.8477 2.6758-3.168 6.9727-5.6406 7.7891-36.422 12.109-73.031 11.375-109.45-0.011718-2.4961-0.78125-3.8633-5.0898-5.7617-7.7539 3.457-1.2852 7.1172-4.043 10.309-3.5625 9.9102 1.4883 19.645 4.1992 33.215 7.2852-21.805-31.836-27.301-63.215-19.141-96.781 7.1758-29.543 25.738-49.176 45.742-48.73 19.391 0.44531 37.262 19.754 44.27 48.301 7.8086 31.785 3.5586 61.848-15.906 92.793zm1.4531-96c0.12109-14.137-11.605-26.438-25.777-27.047-14.832-0.63672-27.875 11.746-27.996 26.617-0.12109 14.137 11.605 26.438 25.777 27.047 14.832 0.63672 27.875-11.746 27.996-26.617z"></path> <path d="m771.77 871.93c13.402-3 23.125-5.6523 33.012-7.1406 3.2773-0.49219 6.9961 2.0039 10.523 3.1445-2.2812 2.9648-4.0195 7.7539-6.9375 8.6289-35.281 10.57-70.801 11.398-106.13 0.25391-3.1445-0.99609-5.207-5.3867-7.7773-8.207 6.0352-1.6094 12.07-3.2148 19.332-5.1602-14.664-25.211-20.531-54.012-13.621-84.793 7.1406-31.789 25.656-52.691 46.559-52.176 20.293 0.50391 38.207 21.07 44.965 51.887 7.1797 32.602 1.4219 62.875-19.926 93.562zm4.7266-100.36c0.12109-14.137-11.605-26.438-25.777-27.047-14.832-0.63672-27.863 11.746-27.996 26.617-0.12109 14.137 11.605 26.438 25.777 27.047 14.832 0.63672 27.875-11.746 27.996-26.617z"></path> <path d="m610.22 978.56c-15.395-6.4453-29.664-11.902-43.344-18.602-2.5781-1.2617-2.7617-7.4297-4.0547-11.328 3.7188 0.22656 8.2695-0.875 11.016 0.875 23.543 14.93 46.691 16.586 70.477 0.39453 2.7461-1.8711 8.0156-0.046875 12.121 0.058594-1.5234 3.4453-2.125 8.6992-4.7266 10.008-13.07 6.5469-26.668 12.078-41.488 18.594z"></path> <path d="m629.35 867.25c-4.7656 6.1211-11.605 14.879-19.402 24.863-17.027-13.586 6.9258-18.156 3.2266-26.867-2.7617-6.707-5.5078-13.402-8.2695-20.102 2.1836-1.1641 4.3672-2.3164 6.5391-3.4688 5.4375 7.7656 10.863 15.527 17.906 25.574z"></path> </g> </svg> 