<?xml version="1.0" encoding="UTF-8"?> <svg xmlns="http://www.w3.org/2000/svg" width="1200pt" height="1200pt" viewBox="0 0 1200 1200"> <g> <path d="m334.22 511.71c0.71875 0.21875 1.4336 0.32422 2.1523 0.32422 2.6523 0 5.1719-1.4062 6.5352-3.8086 27.48-48.543 106.36-70.285 107.15-70.504 3.1055-0.83594 5.332-3.5586 5.5352-6.7695 5.625-90.027-45.41-216.87-47.594-222.23-1.2305-3.0469-4.3359-4.8477-7.5898-4.6445-47.785 4.1602-66.824 230.64-71.527 299.94-0.23047 3.5 1.9805 6.6953 5.3359 7.6914zm62.621-290.3c10.402 27.363 46.742 128.85 44.047 203.39-16.055 4.9805-64.234 21.988-95.141 54.754 9.6562-119.03 30.281-239.75 51.094-258.15z"></path> <path d="m403.58 769.03c19.598 17.887 45.793 26.863 78.148 26.863 11.34 0 23.438-1.0977 36.27-3.3086 4.0859-0.70312 6.8242-4.5859 6.1211-8.6719-0.70313-4.0859-4.6602-6.8242-8.6719-6.1211-44.59 7.707-78.824 1.0273-101.69-19.789-36.871-33.543-32.711-93.723-32.668-94.32 0.046874-0.60547-0.12109-1.1602-0.21094-1.7383 24.441-3.4648 44.203-3.7969 59.477-2.5977-13.398 17.125-25.969 47.441-5.7539 77.664 1.4492 2.1523 3.8242 3.3242 6.2383 3.3242 1.4336 0 2.8867-0.41016 4.1758-1.2617 3.4414-2.3164 4.3633-6.9727 2.0664-10.414-22.762-34.012 9.3906-65.113 10.766-66.418 0.17969-0.17188 0.25391-0.40234 0.41406-0.58594 3.9414 0.73047 7.3555 1.5312 10.328 2.3398 4.5117 4.8906 17.301 20.402 17.254 39.469-0.027344 13.258-6.3867 25.926-18.895 37.676-3.0312 2.8281-3.1797 7.5742-0.33594 10.59 1.4648 1.582 3.4727 2.3711 5.4648 2.3711 1.8477 0 3.6914-0.67578 5.1289-2.0352 15.688-14.707 23.645-31.098 23.645-48.707 0-8.9688-2.1953-17.074-5.1328-24.227 36.672 33.371 45.105 90.68 45.199 91.316 0.51172 3.75 3.7344 6.4727 7.4102 6.4727 0.35156 0 0.6875-0.027344 1.0391-0.074219 4.1016-0.55859 6.957-4.3359 6.4023-8.4375-0.42578-3.1484-11.117-77.551-64.48-111.68-0.59375-0.37891-5.625-3.3828-15.676-6.4219-1.1719-0.64453-2.4258-1.0703-3.7227-1.0352-22.754-6.1172-66.555-11.172-137.33 6.4609-4.0117 1.0117-6.4609 5.0664-5.4648 9.0977 0.99609 4.0117 5.0117 6.4297 9.0977 5.4648 9.8984-2.4648 19.066-4.3398 27.855-5.9375-0.55078 11.008-1.4688 69.105 37.531 104.67z"></path> <path d="m472.63 858.81c0.57031-0.042969 48.414-3.2383 58.855 30.469 0.99609 3.207 3.957 5.2734 7.1641 5.2734 0.73047 0 1.4805-0.10156 2.2266-0.33594 3.957-1.2305 6.168-5.418 4.9375-9.3906-13.945-44.973-71.852-41.133-74.34-40.973-70.637 5.832-117.26-62.184-117.73-62.855-2.3281-3.457-7.0156-4.3086-10.402-2.0195-3.4414 2.3164-4.3516 6.9727-2.0352 10.402 2.0938 3.1016 51.766 75.742 131.32 69.43z"></path> <path d="m538.65 932.81c2.2852 0 4.543-1.0391 6.0195-3.0195 2.4766-3.3242 1.7734-8.0273-1.5391-10.504-62.668-46.598-136.46-20.668-139.59-19.527-3.8945 1.4062-5.918 5.6992-4.4961 9.5938 1.4062 3.9102 5.7695 5.9336 9.5938 4.4961 0.6875-0.25 69.301-24.348 125.52 17.477 1.3516 1 2.918 1.4844 4.4844 1.4844z"></path> <path d="m430.87 520.2c-4.1172 0.30859-7.2227 3.8828-6.9297 7.9961 0.058594 0.67578 5.4805 66.445 68.438 73.184 0.45312 0.058594 44.824 6.3008 64.262 43.801 1.3477 2.5625 3.957 4.043 6.6641 4.043 1.1719 0 2.3438-0.26172 3.457-0.83594 3.6758-1.918 5.1133-6.4453 3.207-10.121-23.129-44.59-73.551-51.488-75.836-51.781-50.535-5.4062-55.062-57.16-55.223-59.371-0.32031-4.1016-3.6914-7.2383-8.0391-6.9141z"></path> <path d="m563.01 574.6c1.3906 1.1289 3.0742 1.6836 4.7461 1.6836 2.168 0 4.3203-0.9375 5.8164-2.7539 2.6055-3.207 2.1367-7.9414-1.0703-10.562-46.363-37.824-57.348-75.324-57.449-75.688-1.1133-3.9844-5.2461-6.3438-9.2305-5.1992-3.9844 1.0977-6.3281 5.2148-5.2305 9.1992 0.47266 1.7031 12.074 42.234 62.418 83.32z"></path> <path d="m786.86 68.98c-1.8906-0.42578-3.793-0.10156-5.4062 0.83594-3.0039 1.7422-72.875 45.379-82.016 310.97-19.848-3.8867-68.598-12.762-99.434-12.762s-79.586 8.8789-99.434 12.758c-9.1406-265.59-79.012-309.23-82.016-310.97-1.6133-0.9375-3.5586-1.2617-5.4062-0.83594-118.04 26.457-131.38 446-131.89 464.06v170.43c0 235.84 142.98 427.72 318.75 427.72s318.75-191.88 318.75-427.72v-170.65c-0.51172-17.844-13.855-437.39-131.89-463.84zm116.89 634.5c0 227.58-136.26 412.72-303.75 412.72s-303.75-185.14-303.75-412.72v-170.21c3.3398-116.91 30.91-422.29 116.98-448.8 11.703 9.8594 65.785 68.102 72.613 305.65 0.074219 2.2109 1.1133 4.293 2.8555 5.668 1.7422 1.3789 4 1.9023 6.1836 1.4492 0.67578-0.14062 68.043-14.203 105.12-14.203 37.059 0 104.44 14.062 105.12 14.207 2.1992 0.45312 4.4375-0.074219 6.1836-1.4492 1.7422-1.3789 2.7852-3.457 2.8555-5.668 6.7695-235.4 61.156-295.49 72.684-305.62 86.016 26.66 113.57 331.89 116.91 448.55z"></path> <path d="m792 208.73c-2.1836 5.3633-53.219 132.2-47.594 222.23 0.20703 3.207 2.4336 5.9336 5.5352 6.7695 0.79297 0.21875 79.672 21.957 107.15 70.504 1.3633 2.4023 3.8828 3.8086 6.5352 3.8086 0.71875 0 1.4336-0.10156 2.1523-0.32422 3.3555-0.99609 5.5664-4.1914 5.332-7.6914-4.7031-69.301-23.746-295.78-71.527-299.94-3.1914-0.20312-6.3398 1.5977-7.5859 4.6445zm62.258 270.83c-30.91-32.77-79.086-49.777-95.141-54.754-2.6953-74.504 33.648-176.02 44.047-203.39 20.812 18.398 41.438 139.12 51.094 258.15z"></path> <path d="m865.45 655.74c-70.723-17.621-114.5-12.586-137.29-6.4648-1.3164-0.042969-2.5859 0.39453-3.7734 1.0508-10.066 3.0469-15.113 6.0625-15.73 6.4531-53.293 34.086-63.984 108.49-64.41 111.64-0.55859 4.1016 2.3008 7.8789 6.4023 8.4375 0.35156 0.042969 0.6875 0.074219 1.0391 0.074219 3.6758 0 6.8984-2.7227 7.4102-6.4727 0.09375-0.63672 8.5391-58.051 45.215-91.355-2.9492 7.1602-5.1523 15.277-5.1523 24.266 0 17.605 7.9531 34 23.645 48.707 1.4336 1.3633 3.2812 2.0352 5.1289 2.0352 1.9922 0 4-0.79297 5.4648-2.3711 2.8398-3.0195 2.6953-7.7617-0.33594-10.59-12.512-11.746-18.867-24.418-18.895-37.676-0.046875-19.055 12.723-34.555 17.242-39.457 2.9805-0.8125 6.3984-1.6133 10.348-2.3516 0.16016 0.18359 0.23438 0.41406 0.41797 0.58594 1.3789 1.3047 33.648 32.211 10.754 66.418-2.3008 3.4414-1.3789 8.1016 2.0664 10.414 1.2891 0.84766 2.7383 1.2617 4.1758 1.2617 2.418 0 4.7891-1.1719 6.2383-3.3242 20.215-30.227 7.6406-60.547-5.7578-77.668 15.277-1.207 35.039-0.875 59.477 2.5938-0.09375 0.57812-0.25781 1.1367-0.20703 1.7461 0.042969 0.60156 4.3203 60.586-32.594 94.262-22.867 20.859-57.086 27.566-101.76 19.848-4.0273-0.70312-7.9688 2.0352-8.6719 6.1211-0.70312 4.0859 2.0352 7.9688 6.1211 8.6719 12.832 2.2109 24.934 3.3086 36.27 3.3086 32.359 0 58.551-8.9805 78.148-26.863 39.008-35.574 38.086-93.691 37.535-104.68 8.793 1.6016 17.957 3.4766 27.855 5.9453 4.043 0.96484 8.1016-1.4492 9.0977-5.4648 0.98828-4.0352-1.457-8.0938-5.4688-9.1016z"></path> <path d="m846.24 781c-0.45312 0.6875-47.477 68.555-117.76 62.84-2.4766-0.17578-60.352-4.0117-74.297 40.988-1.2305 3.9688 0.98047 8.1602 4.9375 9.3906 0.74609 0.23438 1.4961 0.33594 2.2266 0.33594 3.207 0 6.168-2.0664 7.1641-5.2734 10.387-33.543 58.344-30.484 58.812-30.484 79.246 6.6055 129.27-66.312 131.37-69.418 2.3164-3.4258 1.4062-8.1016-2.0352-10.414-3.4141-2.3008-8.0859-1.4219-10.418 2.0352z"></path> <path d="m796.45 899.77c-3.1211-1.1445-76.918-27.07-139.59 19.527-3.3086 2.4766-4.0117 7.1758-1.5391 10.504 1.4844 1.9766 3.7383 3.0156 6.0234 3.0156 1.5664 0 3.1367-0.48438 4.4805-1.4805 56.031-41.676 124.85-17.711 125.52-17.461 4 1.3789 8.2031-0.62891 9.5938-4.5273 1.4102-3.8789-0.59766-8.1719-4.4961-9.5781z"></path> <path d="m630.03 638.26c-1.9023 3.6758-0.46875 8.2031 3.207 10.121 1.1133 0.57031 2.2852 0.83594 3.457 0.83594 2.7109 0 5.3164-1.4805 6.6641-4.043 19.438-37.5 63.809-43.738 64.086-43.785 63.137-6.7539 68.555-72.523 68.613-73.199 0.29297-4.1289-2.8125-7.7188-6.957-8.0117-3.8398-0.35156-7.707 2.8125-8.0117 6.957-0.14453 2.1992-4.4258 53.906-55.387 59.355-2.1211 0.28125-52.539 7.1797-75.672 51.77z"></path> <path d="m622.94 576.17c1.4805 1.875 3.6758 2.8555 5.8867 2.8555 1.625 0 3.2656-0.52734 4.6445-1.6133 53.305-42.012 65.434-84.359 65.934-86.133 1.0977-4-1.2617-8.1289-5.2461-9.2305-4.0117-1.0391-8.1289 1.2617-9.2305 5.2461-0.10156 0.39453-11.266 39.348-60.746 78.34-3.25 2.5664-3.8086 7.2812-1.2422 10.535z"></path> <path d="m593.72 541.65c0.046875 0.070312 0.082031 0.13672 0.12891 0.20703 0.11719 0.17188 0.31641 0.23438 0.44922 0.39453 0.43359 0.52734 0.83594 1.0742 1.4258 1.4805 0.125 0.089844 0.28516 0.050781 0.41406 0.12891 1.1875 0.73438 2.4922 1.2188 3.8633 1.2188s2.6758-0.48438 3.8633-1.2188c0.12891-0.078125 0.28906-0.042969 0.41406-0.12891 0.58984-0.40625 0.99609-0.95312 1.4258-1.4805 0.13281-0.16016 0.32812-0.22266 0.44922-0.39453 0.046875-0.070313 0.082031-0.13672 0.12891-0.20703 0.035156-0.054688 0.066406-0.10547 0.097656-0.16016 40.746-58.977 0.011719-101.25-1.0391-102.32-0.003906-0.003906-0.003906-0.007813-0.007813-0.011719-0.003906-0.003906-0.007812-0.003906-0.007812-0.007812-0.003907-0.003906-0.046875-0.050782-0.050781-0.050782-0.30078-0.29297-0.67969-0.42969-1.0156-0.66406-0.47656-0.33594-0.92187-0.73438-1.4492-0.94922-0.070313-0.027343-0.14453-0.019531-0.21875-0.042969-2.6406-0.97656-5.7188-0.47266-7.8672 1.6562-0.42578 0.42578-42.172 42.953-1.1055 102.39 0.035156 0.050781 0.066406 0.10547 0.10156 0.15625zm6.2812-85.078c7.2109 11.102 17.211 34.988 0 66.703-17.211-31.719-7.2109-55.605 0-66.703z"></path> <path d="m711.5 1000.7c-18.984 22.969-43.082 6.7812-45.25 5.2734-30.262-26.191-64.805-26.5-66.254-26.5-1.4961 0-36.84 0.30859-65.758 26.105-1.0547 0.77734-26.277 18.676-45.746-4.8789-2.668-3.207-7.3984-3.6484-10.562-1.0117-3.1914 2.6367-3.6484 7.3672-1.0117 10.562 10.824 13.098 23.41 17.535 35.082 17.535 12.832 0 24.551-5.3633 31.641-10.547 25.062-22.312 55.969-22.762 56.355-22.766 0.36719 0 30.574 0.45312 56.938 23.23 6.7383 4.9062 18.238 10.137 30.922 10.137 11.66 0 24.332-4.4258 35.215-17.594 2.6367-3.1914 2.1836-7.9258-1.0117-10.562-3.1602-2.6328-7.8945-2.1914-10.559 1.0156z"></path> <path d="m600.14 822.71c4.1289-0.074219 7.4258-3.5 7.3555-7.6445-0.074219-4.0859-3.4141-7.3555-7.5-7.3555h-0.14453c-29.441 0.55859-38.965 29.559-39.348 30.805-0.71875 2.2539-0.32422 4.7031 1.0547 6.6211l20.715 28.871c1.4648 2.0508 3.7656 3.1367 6.0938 3.1367 1.5234 0 3.0469-0.45313 4.3633-1.4062 3.3711-2.418 4.1445-7.1055 1.7305-10.457l-18.297-25.504c2.7539-5.7148 9.8867-16.801 23.977-17.066z"></path> <path d="m611.63 877.15c2.3281 0 4.6289-1.082 6.0938-3.1367l20.715-28.871c2.418-3.3555 1.6406-8.043-1.7305-10.457-3.3359-2.418-8.0391-1.6719-10.457 1.7266l-20.715 28.871c-2.418 3.3555-1.6406 8.043 1.7305 10.457 1.3164 0.95703 2.8398 1.4102 4.3633 1.4102z"></path> <path d="m376.13 561.37c4 0 7.8359 1.1445 11.105 3.2969 3.4414 2.3008 8.1133 1.332 10.387-2.125 2.2852-3.457 1.332-8.1133-2.125-10.387-5.7266-3.793-12.422-5.7852-19.363-5.7852-19.176 0-34.777 15.309-34.777 34.129 0 18.824 15.602 34.129 34.777 34.129 9.2578 0 17.957-3.5312 24.52-9.9336 2.957-2.8867 3.0195-7.6328 0.11719-10.605-2.8867-2.9297-7.6328-3.0195-10.605-0.11719-3.7344 3.6484-8.7148 5.6523-14.035 5.6523-10.898 0-19.777-8.582-19.777-19.129 0-10.539 8.8789-19.125 19.777-19.125z"></path> <path d="m837.79 604.59c1.4648 1.4961 3.4141 2.2539 5.3633 2.2539 1.8906 0 3.7773-0.70312 5.2461-2.1367 6.6016-6.4609 10.25-15.043 10.25-24.199 0-18.824-15.602-34.129-34.777-34.129-19.16 0-34.762 15.309-34.762 34.129 0 5.6523 1.4336 11.234 4.1289 16.156 1.9922 3.6484 6.5898 4.9492 10.18 2.9727 3.6328-1.9922 4.9648-6.5625 2.9727-10.18-1.5234-2.7695-2.2852-5.7695-2.2852-8.9492 0-10.547 8.8633-19.129 19.762-19.129 10.898 0 19.777 8.582 19.777 19.129 0 5.0664-2.0352 9.8594-5.7422 13.477-2.957 2.8828-3.0156 7.6328-0.11328 10.605z"></path> </g> </svg> 