<?xml version="1.0" encoding="UTF-8"?> <svg xmlns="http://www.w3.org/2000/svg" width="1200pt" height="1200pt" viewBox="0 0 1200 1200"> <g> <path d="m242.05 738.47c1.1133 1.6992 2.8711 2.8867 4.8789 3.2656 9.6094 1.832 19.246 2.7539 28.652 2.7539 79.18 0 137.34-63.668 177.44-133.75 6.957 1.6484 19.055 3.8438 34.234 3.8438 37.25 0 92.855-13.242 135.29-80.434 1.1289-1.7852 1.4492-3.9688 0.87891-6.0195-0.57031-2.0352-1.9766-3.75-3.8672-4.6875-0.84766-0.44141-85.605-41.527-133.7 37.41-2.1523 3.5312-1.0391 8.1445 2.5039 10.297 3.5 2.1367 8.1445 1.0547 10.297-2.5039 33.324-54.637 86.277-42.305 106.27-35.055-51.98 75.25-120.12 68.836-144.42 63.594 42.07-78.691 61.961-160.79 63.488-167.29 9.8438-38.504 25.996-70.438 41.223-94.395 6.0312 1.8008 16.012 4.0859 28.02 4.0859 21.855 0 50.289-7.5742 73.242-39.402 1.6133-2.2422 1.875-5.1719 0.6875-7.6445-0.42578-0.87891-10.781-21.445-42.848-13.285-4.0273 1.0117-6.4609 5.082-5.4336 9.0977 0.99609 4.0117 5.0547 6.4883 9.0977 5.4336 12.641-3.1367 19.469-0.39453 22.852 2.1836-27.238 33.66-61.086 30.461-76.906 26.508 16.469-23.445 29.984-36.391 30.074-36.484 51.781-42.305 90.219-51.184 113.34-51.184 19.453 0 30.16 6.2539 30.336 6.2539v-0.015624c60.324 52.777 109 63.852 139.23 63.852 32.973 0 51.68-12.672 52.457-13.215 2.3438-1.625 3.5742-4.4375 3.1641-7.2656-0.42578-2.8125-2.4023-5.1562-5.1133-6.0352-22.676-7.3398-40.723-30.441-40.898-30.441-39.125-80.375-97.047-97.25-138.75-97.25-24.242 0-41.059 5.8867-41.746 6.1211-22.438 7.9297-43.867 16.09-64.84 24.352-0.32812 0.11328-0.67188 0.10938-0.98828 0.27344-0.12891 0.0625-0.20312 0.18359-0.32422 0.25391-54.289 21.441-103.64 43.996-148.03 67.637 6.3398-26.539 25.207-79.941 75.625-90.758 1.4648 5.6094 2.5781 13.621 0.074219 19.453-1.5234 3.5312-4.3086 6.0039-8.4805 7.5586-3.8828 1.4336-5.8594 5.7578-4.4258 9.6367 1.4219 3.8828 5.7148 5.8867 9.6367 4.4258 7.9961-2.9727 13.902-8.3945 17.035-15.688 6.7539-15.688-0.95312-34.715-1.8594-36.84-1.3164-3.0898-4.5703-4.9062-7.9258-4.4805-75.078 10.43-93.59 96.309-96.848 115.91-109.92 61.012-187.29 129.07-231.74 203.61-5.0703-5.3008-12.355-13.852-19.266-25.281-0.023437-0.10156 0.007813-0.19922-0.019531-0.30078-3.6758-13.332-7.3672-38.07-1.668-47.738 0.45312-0.77734 0.9375-1.3789 1.4062-1.8164 4.4531 2.8555 11.793 6.2266 18.867 3.5742 6.6641-2.4609 10.809-8.9648 12.332-19.352 0.98047-2.9727 3.2383-11.586-0.6875-19.293-1.6133-3.1484-4.8203-7.1758-11.117-9.4766-1.5508-2.1992-2.8281-4.7617-2.9023-5.4062 0.015625-0.015624 2.4766-2.2539 14.047-1.3477 1.2344 0.09375 2.457-0.29297 3.6133-0.85938 9.6875 24.34 13.434 49.75-1.0508 65.652-2.7852 3.0625-2.5625 7.8086 0.49609 10.605 3.0742 2.7852 7.8242 2.5781 10.605-0.49609 43.066-47.301-29.324-139.75-32.434-143.66-1.4805-1.875-3.4258-2.9141-6.168-2.8398-2.3867 0.10156-4.5859 1.3164-5.918 3.2969-73.676 109.06-6.4297 189.25 12.168 208.13-8.5781 15.949-15.875 32.148-21.473 48.672-41.035 121.15 15.832 210.5 18.277 214.25zm-2.3008-453.71c6.707 9.4414 14.625 22.086 21.375 35.785-7.3945-0.26172-19.938 0.42578-24.512 9.6094-5.0664 10.18 4.1758 21.547 6.0781 23.715 0.99609 1.1445 2.3164 1.9492 3.7773 2.3281 3.1484 0.80469 3.8242 2.125 4.0586 2.5508 1.1992 2.3281 0.35156 6.4023-0.23438 7.9531-0.23438 0.57031-0.37891 1.1719-0.46875 1.7852-0.79297 6.0508-2.4023 7.9102-2.7539 8.043-0.95312 0.35156-5.0391-1.3477-7.7773-3.7773-1.832-1.668-4.3633-2.2539-6.7812-1.7305-5.6836 1.3789-10.34 4.9062-13.461 10.211-1.457 2.4727-2.4805 5.3203-3.2578 8.3516-4.9023-28.68-0.89844-64.18 23.957-104.82zm375.48-27.629c-6.9297 3.9688-9.1992 3.0469-9.2305 3.0469-0.89453-0.57031-1.7734-4.5117-1.5664-7.2227 0.83594-4.4805-0.49609-8.6289-3.6758-11.367-7.4727-6.4609-24.066-2.5508-34.395 0.77734-0.17969-1.8203 0.97656-5.7773 2.6562-9.4297 23.742-11.145 48.684-21.984 74.727-32.539-1.3672 1.3633-3.1602 2.7852-5.7656 4.2344-0.52734 0.29297-1.0273 0.64453-1.4648 1.0547-3.6484 3.3828-21.605 20.992-15.922 35.301 1.6523 4.1562 4.7734 6.8867 8.3984 8.7461-3.2695 2.0352-6.6055 4.2227-9.9961 6.5273-1.2852-0.003906-2.5742 0.19141-3.7656 0.87109zm208.64-57.625c-1.6992 0.21875-7.1055-2.1836-9.7109-4.0586-8.1016-9.4648-16.73-14.559-25.621-15.133-9.8008-0.71875-16.316 4.7891-17.008 5.4062-0.49609 0.44141-0.92188 0.95313-1.2734 1.5078-0.74609 1.1562-3.0469 4.7305-8.0859 1.4492-0.57031-0.37891-1.1875-0.6875-1.832-0.89453-8.1445-2.7383-10.094-5.375-10.152-6.1523-0.24609-3.1484 7.7422-10.543 16.59-15.598 17.633 1.1875 37.691 6.1836 57.543 18.75-0.27344 0.94922-0.375 1.9688-0.24219 3.0117 1.1289 8.957-0.33984 11.594-0.20703 11.711zm-102.83-28.535c0.10547-0.042968 8.1797-2.7969 20.797-4.3047-4.1172 4.7109-7.0781 10.227-6.6055 16.152 0.66016 8.2461 7.2383 14.605 19.527 18.895 2.3867 1.3906 8.4961 4.2617 15.336 2.8555 3.3438-0.68359 8.0312-2.6328 11.941-8.0234 2.3594-1.4648 9.7539-4.2031 21.754 9.6523 2.0938 1.6562 11.016 8.3047 19.906 8.3047 2.5195 0 5.0391-0.54297 7.3984-1.8594 6.2617-3.5156 8.043-10.504 8.3555-16.676 15.871 13.578 31.145 32.762 44.352 59.801 0.6875 0.91016 13.855 18.18 33.238 29.648-7.3555 2.3594-17.504 4.4805-30.117 4.4805-27.656 0-72.566-10.43-130.15-60.746-0.57031-0.39453-14.254-9.3477-39.418-9.3477-16.32 0-39.434 3.9805-68.43 18.594-10.871-0.26172-14.125-2.3164-14.391-2.9648-0.9375-2.3711 4.1758-11.09 11.574-18.164 12.867-7.4609 16.207-16.918 16.016-24.254 19.117-7.4844 38.629-14.871 58.918-22.043zm-293.18 140.33c2.3281 1.2383 4.3516 2.8242 4.6992 4.832 0.84766 4.8633-5.418 12.992-11.016 18.297-6.0195-0.55859-10.254 1.4805-12.934 3.4727-8.7891 6.5195-9.6094 19.352-9.668 20.785-0.042969 0.92188 0.074219 1.832 0.36719 2.7109 1.5977 4.7617 1.4062 8.7617-0.55859 12.188-4.2461 7.4102-15.965 11.324-18.691 12.043-13.652 0.19141-24.828 8.9805-27.07 10.973-9.3984 11.207-24.379 8.1406-33.926 4.5352 29.617-31.172 65.914-61.191 108.8-89.836zm-189.75 217.38c13.59-39.945 37.375-78.57 70.281-115.66 7.4805 3.5078 17.297 6.5469 27.191 6.5469 10.137 0 20.289-3.1797 27.875-12.332 0.089844-0.058594 8.2188-6.4883 18.207-6.7695 2.1992-0.44141 21.664-4.8203 30.043-19.352 3.8945-6.7383 4.6719-14.621 2.3164-22.879 0.33594-2.418 1.3906-6.6953 3.5156-8.2773 0.33594-0.26172 1.4062-1.0391 4.4258-0.27734 2.3008 0.60156 4.7773 0.042969 6.6055-1.4648 2.2266-1.8164 21.59-18.191 18.777-34.613-0.55859-3.2617-2.1914-7.2148-5.9844-10.898 33.113-21.254 69.82-41.734 110.09-61.359-0.082031 3.0469 0.37109 6.0742 1.875 8.7695 1.4648 2.6367 5.1562 7.1055 13.449 7.4258 0.92188-0.015625 1.832-0.10156 2.7109-0.39453 7.3555-2.5039 15.895-3.8945 20.012-4.1172-0.085937 4.457 0.75 14.125 7.8438 19.227-1.0977 0.875-2.1055 1.543-3.207 2.4414-2.4609 2.3164-60.676 57.598-84.699 151.62-0.058594 0.24609-0.63672 2.6055-1.6367 6.4062-2.7852-3.4688-6.1641-6.5508-10.359-8.1328-4.0273-1.5078-10.43-2.3281-17.594 2.2422-3.7773 2.1836-9.2422 3.8672-10.195 3.8945-0.027344-0.042969-1.875-4.1016 4.7617-20.23 4.832-5.2148 13.652-16.199 12.305-25.43-0.36719-2.5195-1.4219-4.7617-3.0742-6.5625-0.36719-3.1055-0.30859-7.9844 2.0508-11.16 1.9336-2.5938 5.4492-4.2188 11.895-3.7656 1.6562 1.0391 2.6953 3.8242 3.1484 9.2148 0.98047 3.8672 4.2461 8.0117 9.3164 8.5117 7.9531 0.98047 14.793-6.6641 24.402-26.645 1.7852-3.7344 0.21875-8.2188-3.5156-10.02-3.7227-1.7422-8.2031-0.21875-10.02 3.5156-3.0039 6.2695-5.3906 10.445-7.1914 13.227-1.9922-5.5078-5.2734-8.6719-8.1016-10.473-4.7305-3.0039-9.2852-2.9453-10.094-2.8281-12.277 0.62891-18.723 6.0039-21.957 10.414-7.75 10.562-4.4961 24.332-4.1016 25.871 0.36719 1.4219 1.1445 2.6953 2.2109 3.6602-0.87891 2.8711-4.8945 8.7461-9.082 13.125-0.64453 0.67578-1.1562 1.4492-1.5078 2.2852-5.668 13.461-10.988 29.973-1.6406 38.219 9.2852 8.2031 24.871-0.058594 28.184-2.0078 2.6523-1.6836 3.9844-1.1992 4.4961-1.0273 3.9531 1.4844 7.8789 8.9375 9.8711 14.59-22.121 74.121-94.531 276.27-226.43 276.27-7.3984 0-14.973-0.62891-22.559-1.9023-8.8438-15.484-49.934-95.965-14.91-198.9z"></path> <path d="m352.75 581.86c4.043 10.871 9.8281 16.363 17.199 16.363 10.766 0 17.84-12.512 19.762-16.348 0.99609-1.9922 1.0547-4.3086 0.17578-6.3438-1.2734-2.9141 0.45312-7.9414 2.668-11.938 0.83594 0.51172 1.582 1.4062 1.832 3.0195 0.19141 1.668 0.92188 3.2227 2.0938 4.4258 5.4648 5.582 11.527 8.4102 18.031 8.4102 18.121-0.015625 30.602-22.426 31.859-24.785 12.816-22.441-4.5117-41.719-16.508-49.336-1.5508-0.6875-1.875-1.4336-2.0664-2.0664-1.2734-4.4688 3.1211-13.855 5.5508-17.68 14.34-14.105 3.5-33.191-3.793-40.809-4.9375-6.2266-10.328-9.375-16.039-9.375-15.367 0-22.473 22.59-23.922 28.008-1.7422 11.469-14.809 14.621-15.324 14.738-0.61328 0.13281-1.2148 0.33594-1.7852 0.62891-15.922 8.0586-26.395 19.469-31.129 33.91-8.0859 24.727 4.0273 49.043 4.1758 49.219zm2.8711-64.508c3.3711-10.328 11.074-18.676 22.926-24.828 4.7148-1.2891 22.926-7.4414 25.68-25.957 2.4766-8.7734 7.4727-16.172 9.2852-16.172 0.27734 0 1.8594 0.62891 4.7148 4.1914 0.11719 0.13281 12.043 12.992 3.6758 21.402-2.0664 3.0039-12.16 18.605-8.5391 31.363 1.5078 5.2891 5.1133 9.3477 9.4023 11.133 0.80469 0.52734 19.613 12.906 10.457 28.93-2.957 5.5508-11.441 17.035-18.723 17.035-1.9023 0-3.8242-0.83594-5.8438-2.5352-1.9258-6.4492-7.9336-13.949-20.02-13.949h-0.058594c-2.2109 0.10156-4.2617 1.1719-5.6094 2.9141-1.1992 1.5508-10.637 14.297-8.0859 26.719-1.5664 2.4336-3.457 4.6445-4.6875 5.4062-0.61328-0.64453-1.8906-2.3281-3.3555-6.3008l-7.5742-20.758c-0.085937-0.1875-9.8281-19.727-3.6445-38.594z"></path> <path d="m331.39 706.16c2.1992 0 4.3945-0.96484 5.875-2.8281 5.9336-7.457 13.609-14.59 17.477-16.434 2.0352 2.7695 5.8008 3.8398 9.0391 2.4023 3.793-1.668 5.5234-6.0938 3.8516-9.8867-1.9766-4.4805-5.5078-7.2656-9.9766-7.8359-10.988-1.5234-24.988 13.402-32.137 22.426-2.5781 3.2383-2.0352 7.9531 1.1992 10.531 1.3906 1.0977 3.0312 1.625 4.6719 1.625z"></path> <path d="m253.3 602.93c-2.1992-3.9102-5.9609-6.3125-10.59-6.7695-4.0742-0.36719-8.3047 2.1836-8.7148 6.3125-0.41016 4.1172 2.1094 7.3984 6.2266 7.8086 1.625 3.3398-2.4336 18.223-8.3477 30.613-1.7852 3.7344-0.20703 8.2188 3.5312 10.004 1.0547 0.49609 2.1523 0.73047 3.2383 0.73047 2.7969 0 5.4805-1.5664 6.7695-4.2617 4.5312-9.5 14.406-32.852 7.8867-44.438z"></path> <path d="m979.28 498.32c-0.9375-1.8008-2.5781-3.1484-4.543-3.7344-14.137-4.1914-28.434-6.3125-42.496-6.3125-72.289 0-131.58 54.484-175.58 116.16-15.988-5.5195-60.648-16.984-109.39 4.8555-0.078125 0.019531-0.14062 0.015625-0.21875 0.035156-1.0391 0.25-1.9648 0.71484-2.7656 1.3203-21.328 10.125-43.32 26.707-63.945 53.113-1.3164 1.668-1.8477 3.8086-1.4805 5.9023 0.35156 2.0938 1.5977 3.9258 3.3828 5.0547 0.45312 0.29297 27.027 16.625 60.102 16.625 14.242-0.007812 29.688-3.2188 44.785-11.855 0.20312-0.10156 0.37891-0.19531 0.57031-0.31641 10.82-6.293 21.457-15.316 31.312-28.363 2.4883-3.3086 1.832-8.0117-1.4648-10.52-3.3086-2.4609-8.0117-1.8477-10.52 1.4648-7.1719 9.5039-14.789 16.617-22.562 21.867-1.125-1.2617-2.2344-2.8359-2.6172-4.7695-0.58984-3 0.65625-6.5312 3.6875-10.473 0.32422-0.41016 0.60156-0.86328 0.82031-1.3477 0.96484-2.0195 9.1133-20.082-0.46875-31.918-0.63281-0.78125-1.5703-1.2188-2.3008-1.8867 28.324-5.2383 52.07 0.003906 64.262 3.9414-49.777 74.195-77.727 154-79.832 160.14-13.617 37.328-32.867 67.496-50.402 89.816-16.418-6.7461-63.969-20.484-104.27 25.07-1.832 2.0508-2.3711 4.9375-1.4336 7.5273 0.29297 0.82031 6.9297 18.223 32.035 18.223 2.8398 0 5.9336-0.23438 9.2578-0.73047 4.1016-0.60156 6.9297-4.4258 6.3125-8.5117-0.60156-4.0859-4.4961-6.9727-8.5117-6.3125-12.875 1.8906-19.426-1.5391-22.516-4.4531 30.438-30.758 63.812-24.211 79.16-18.711-18.719 21.695-33.457 33.23-33.559 33.316-40.18 26.629-76.523 40.137-108 40.137-26.012 0-39.25-9.7227-39.418-9.7266-60.359-64.469-111.9-78.02-144.54-78.02-25.43 0-40.547 8.2031-41.176 8.5547-2.4883 1.3789-3.9844 4.0586-3.8516 6.9141 0.13281 2.8398 1.8594 5.375 4.4805 6.5195 21.824 9.5664 37.484 34.352 37.645 34.352 35.727 96.855 105.16 111.33 143.36 111.33 16.082 0 26.734-2.5781 27.172-2.6953 23.039-5.6406 45.109-11.605 66.738-17.719 0.40625-0.082031 0.82031-0.074218 1.2188-0.22656 0.14062-0.054688 0.23047-0.17188 0.36719-0.23438 32.844-9.3164 64.062-19.176 93.617-29.586h0.007812c20.969-7.3828 41.09-15.047 60.395-22.977-8.9414 25.781-33.023 77.059-84.289 82.797-0.91016-5.7852-1.2148-13.828 1.8906-19.41 1.875-3.3398 4.8789-5.5234 9.168-6.6523 4.0117-1.0391 6.418-5.1406 5.3633-9.1406-1.0391-4.0117-5.1133-6.5352-9.1406-5.3633-8.2617 2.1523-14.676 6.9727-18.531 13.918-8.2773 14.941-2.4883 34.645-1.8008 36.84 0.98047 3.1367 3.8945 5.2578 7.1641 5.2578h0.29297c75.738-2.9062 102.68-86.535 107.88-105.71 115.44-49.77 199.2-109.79 250.85-179.54 16.953 21.676 60.543 91.961-4.5234 177.83-17.52-30.746-43.609-92.199-15.102-117.83 3.0898-2.7695 3.3398-7.5156 0.57031-10.59-2.7852-3.1211-7.543-3.3398-10.59-0.57031-47.578 42.789 15.262 141.97 17.957 146.18 1.2891 2.0078 3.4727 3.2812 5.8594 3.4258 0.14453 0.015625 0.30859 0.015625 0.45312 0.015625 2.2266 0 4.3359-0.98047 5.7695-2.7109 84.133-101.18 25.223-187.66 8.5859-208.29 10.125-15.023 19-30.422 26.219-46.312 52.898-116.46 5.1875-211.02 3.1367-214.98zm-305.07 126.23c2.7383 3.3555 0.52734 11.543-1.1289 15.426-5.3633 7.2656-7.3672 14.605-5.9336 21.797 0.71094 3.6094 2.2695 6.457 4 8.957-29.938 12.473-59.742 1.8477-73.359-4.6484 17.477-20.578 35.648-33.844 53.203-42.25 17.609-4.0977 22.25-0.5 23.219 0.71875zm-91.418 300.22c1.6562-1.2656 26.488-20.582 53.066-56.605 0.44922 0.21875 0.80469 0.60938 1.293 0.73828 3.957 1.6836 10.254 6.7969 10.27 8.7891-0.027344 0.13281-0.32422 0.67578-1.2148 1.4648-0.77734 0.67578-1.3906 1.4805-1.832 2.4023-0.52734 1.1133-5.0391 11.148 1.4219 19.438 6.1836 7.9102 19.074 9.7539 38.129 5.7852 6.1367-0.10156 17.402-4.8633 18.84-21.621 2.1094-1.4492 5.082-3.0312 7.3984-2.4766 2.0508 0.48438 4.1758 3.2812 5.8594 7.7344 0.42578 4.0859 2.4453 16.082 12.145 23.848 0.73828 0.58984 1.6758 0.82031 2.457 1.332-33.195 16.543-69.418 32.102-108.68 46.602 0.38672-3.0273 0.23828-6.0898-0.98828-8.9219-1.1992-2.7695-4.4375-7.5742-12.656-8.7148-0.91016-0.11719-1.8477-0.10156-2.7227 0.11719-7.5742 1.7734-16.172 2.5508-20.316 2.1094 0.027344-0.21875 0.042969-0.44141 0.074219-0.6875 0.37891-4.1172-2.668-7.4414-6.7969-7.8242-4.0742-0.19141-7.793 3.0039-8.1758 7.1055-1.2617 4.3789-0.33594 8.6289 2.5508 11.676 6.7969 7.1758 23.715 4.9375 34.309 2.6367-0.011719 1.832-1.5586 5.6641-3.5898 9.125-24.734 8.7266-50.633 17.031-77.594 24.945 1.5-1.2227 3.4258-2.4609 6.1719-3.6445 0.55859-0.23438 1.082-0.54297 1.5664-0.89453 3.9688-3.0039 23.582-18.734 19.352-33.531-1.2227-4.2773-4.0586-7.25-7.4531-9.457 12.023-5.9609 24.379-13.016 37.121-21.469zm-182.38 90.84c-16.98-2.9375-36.676-9.8555-55.531-24.566 0.30078-0.84766 0.49609-1.7461 0.47266-2.6992-0.23437-9.0078 1.4805-11.5 1.3633-11.617 1.4336-0.089843 6.8125 2.8555 9.2578 5.0117 7.1211 10.223 15.191 16.145 23.98 17.605 9.8438 1.6133 16.715-3.1641 17.477-3.707 0.52734-0.39453 1.0117-0.84766 1.4219-1.3633 0.84766-1.082 3.4727-4.3945 8.1875-0.66016 0.52734 0.44141 1.0977 0.80469 1.7305 1.082 7.8242 3.5312 9.5078 6.3438 9.4922 7.1328-0.074219 3.1445-8.625 9.6211-17.852 13.781zm45.781-0.25391c-0.082031 0.011719-8.2969 1.9961-21.105 2.1953 4.5547-4.2773 8.0391-9.4766 8.1562-15.422 0.17578-8.2617-5.7266-15.25-17.535-20.742-2.2422-1.625-8.0859-4.9805-14.984-4.3633-3.3984 0.35156-8.2461 1.832-12.672 6.7969-0.89453 0.41016-2.9727 1.2148-5.6523 0.71875-4.5703-0.74609-9.4648-4.6875-15.043-12.465-2.4609-2.3867-15.277-14.004-26.527-9.1406-6.4883 2.8438-8.9688 9.4883-9.918 15.539-14.473-15.02-27.828-35.582-38.246-63.703-0.58594-0.96484-11.969-19.453-30.117-32.812 25.312-5.4492 81.52-5.2891 153.89 71.953 0.6875 0.55859 17.082 13.785 49.629 13.785h0.015626c18.312 0 37.977-4.168 58.809-12.242 10.496 1.1719 13.609 3.707 13.789 4.3633 0.71875 2.4609-5.2461 10.621-13.301 16.934-13.555 6.1367-17.824 15.215-18.359 22.531-19.777 5.5469-39.926 10.957-60.832 16.074zm305.16-110.17c-5.7578 0.68359-10.5-0.011719-13.738-2.5781-6.0781-4.7891-6.6953-14.105-6.707-14.152-0.027344-0.73047-0.16016-1.4492-0.41016-2.125-3.6172-10.328-9.3008-16.465-16.902-18.254-11.863-2.8281-22.25 6.8867-23.395 8.0117-1.4492 1.4062-2.2695 3.3555-2.2695 5.375 0 7.2227-2.3594 10.078-5.6094 10.457-20.902 4.2773-24.637-0.089844-24.684-0.14453-0.42578-0.52734-0.27734-1.8008-0.027343-2.7969 5.1836-5.4805 6.2539-12.465 2.7969-19.027-2.6406-5.0195-9.75-11.156-15.883-14.047 7.5898-11.262 15.094-23.934 22.102-37.852 2.4648 4.0938 5.7734 7.8672 10.41 10.02 5.0664 2.3711 13.504 3.6172 23.848-3.2539 0.37891-0.19141 39.609-17.168 61.625 2.1094 0.42578 1.1562 0.84766 2.9883 0.29297 4.3633-0.76172 1.918-3.707 3.1484-5.3906 3.707-0.87891 0.29297-1.6992 0.74609-2.4023 1.332-2.3594 1.9492-13.918 12.246-10.094 23.645 4.0117 11.98 21.285 14.105 33.91 14.676h0.33594c4 0 7.3086-3.1484 7.4844-7.1641 0.19141-4.1445-3.0195-7.6445-7.1484-7.8359-17.184-0.74609-20.246-4.3203-20.332-4.3203-0.042968-1.1445 1.9492-4.2188 4.5117-6.6523 8.2188-3.1797 11.691-8.2461 13.152-12.055 3.3398-8.7148-1.0977-16.977-1.6133-17.887-0.36719-0.64453-0.82031-1.2305-1.3633-1.7422-29.078-27.684-77.051-6.8125-80.141-5.3008-3.0898 2.0352-7.4414 4.1602-10.34 2.7852-4.0117-1.8477-6.8438-9.6328-7.8867-15.336 2.3281-5.4453 4.5625-11.051 6.6719-16.832 0.30078-0.86328 9.8164-28.059 27.332-65.141 0.34766 0.16016 0.61719 0.38281 0.98438 0.52344 8.4102 3.2227 19.426 1.1133 33.75-7.1484 2.7109-2.2422 6.2695-4.3633 8.5391-5.2148 0.058594 0.98047 0.027344 2.4609-0.27734 4.5703-3.4727 14.34-10.035 48.633 4.2617 57.48 2.4336 1.5078 4.9492 2.1094 7.457 2.1094 8.4102 0 16.496-6.8125 19.262-9.168 4.6875-3.2969 16.363-9.332 22.762-6.707 2.8125 1.1289 4.7773 4.4258 5.832 9.7852 0.79297 4.0859 4.8203 6.7812 8.7891 5.918 4.0742-0.79297 6.7227-4.7305 5.918-8.7891-2.6055-13.316-9.582-18.676-14.973-20.844-15.543-6.2852-34.82 6.8555-37.473 8.7617-6.6211 5.582-9.5195 5.9922-9.6094 6.2266-3.0898-3.4727-1.9648-23.395 2.4766-41.863 0.61328-4.0273 2.4766-16.246-6.3555-21.227-9.2578-5.2578-21.418 3.4727-25.094 6.6641-12.07 6.8398-17.668 6.1836-19.543 5.5664-0.089844-0.027344-0.10938-0.078125-0.19531-0.10938 6.6602-13.461 14.285-27.863 22.758-42.539 9.2852-4.7734 30.277-13.27 42.504-8.2539 3.957 1.6562 6.5898 4.6602 8.2305 9.375-1.0273 5.7852-2.8711 21.738 5.3008 34.336 5.2734 8.1602 13.492 13.285 24.418 15.25 0.83594 0.14453 1.668 0.16016 2.4453 0.027344 17.551-2.6211 34.555-0.96484 36.254 2.2695 0.042969 0.16016 0.042969 0.99609-1.0273 3.6914-0.39453 1.5508-9.4922 38.395 8.1016 62.902 7.3672 10.277 18.316 16.543 32.223 19.152-37.348 38.27-86.09 73.508-145.86 105.27zm157.7-118.14c-0.83594-0.41406-1.7578-0.69922-2.7461-0.77344-13.449-1.0391-22.969-5.6836-29.105-14.207-13.344-18.543-6.0352-49.379-6.1523-49.379 3.8633-8.9219 0.875-14.914-1.2617-17.684-9.4766-12.348-38.422-9.625-49.043-8.1133-6.1523-1.3164-10.52-4.0586-13.332-8.3789-6.418-9.8281-2.9297-24.668-2.9023-24.816 0.30859-1.2461 0.29297-2.5625-0.058594-3.793-2.7852-10.051-8.8164-17.242-17.445-20.832-10.934-4.5586-24.262-2.625-35.383 0.72266 43.281-68.746 105.07-136.51 180.62-136.51 11.559 0 23.336 1.6133 35.039 4.7891 7.25 16.289 40.137 100.46-4.9492 199.38-12.656 27.766-30.668 54.281-53.285 79.598z"></path> <path d="m870.12 528.96c-6.6523 6.8242-15 13.168-19.027 14.605-1.7578-2.9453-5.332-4.4102-8.7734-3.2812-3.9414 1.2891-6.0781 5.5234-4.8047 9.4648 1.5234 4.6445 4.7773 7.7773 9.1562 8.7891 0.9375 0.21875 1.918 0.32422 2.9141 0.32422 10.723 0 23.965-11.895 31.289-19.438 2.8867-2.9727 2.8125-7.7188-0.14453-10.605-2.9766-2.8945-7.7227-2.8203-10.609 0.14062z"></path> <path d="m974.84 589.6c-3.7344-1.8164-8.2031-0.21875-9.9883 3.5312-4.543 9.5078-14.398 32.871-7.8672 44.441 2.1992 3.9102 5.9766 6.3125 10.605 6.7812 0.27734 0.015626 0.55859 0.027344 0.84766 0.027344 3.8242 0 7.4727-2.5195 7.8516-6.3555 0.39453-4.1289-2.1094-7.3984-6.2383-7.8086-1.625-3.3398 2.4336-18.238 8.3359-30.629 1.7852-3.7305 0.20312-8.1992-3.5469-9.9883z"></path> </g> </svg> 